<svg width="142" height="45" viewBox="0 0 142 45" fill="none" xmlns="http://www.w3.org/2000/svg">
<g clip-path="url(#clip0_12_112)">
<path d="M68.8748 19.0097L69.9297 19.413C69.3712 21.4917 68.2233 23.3222 66.61 24.7493C64.9967 25.9593 63.0112 26.5797 60.9946 26.4867C58.2023 26.6108 55.4411 25.587 53.4556 23.6014C51.532 21.5227 50.5082 18.7615 50.6633 15.9383C50.5703 13.022 51.6251 10.1987 53.5797 8.05801C55.4722 6.01038 58.1403 4.86246 60.9325 4.92451C63.3524 4.80042 65.6793 5.76218 67.3546 7.49956C68.9369 9.20592 69.7435 11.5638 69.7435 14.5422V14.7904H57.8611V19.9405C57.8611 21.926 58.1403 23.2911 58.6677 24.0357C59.3503 24.8424 60.4361 25.2767 61.491 25.1526C63.1663 25.2147 64.7796 24.6562 66.0826 23.6324C67.3856 22.4224 68.3784 20.8092 68.8748 19.0097ZM57.799 13.3012H63.7868V9.33002C63.8488 8.46133 63.6006 7.62366 63.0732 6.94112C62.4527 6.38267 61.6151 6.10345 60.7774 6.19653C59.9397 6.13448 59.1331 6.4137 58.5436 6.97214C57.9852 7.62366 57.737 8.49235 57.799 9.33002V13.3012Z" fill="#201747"/>
<path d="M69.0299 24.3769H71.4809V7.06516H68.6887V5.51392C69.154 5.51392 69.9607 5.4829 71.0776 5.45187C72.1945 5.42085 72.8149 5.38983 72.939 5.38983C73.6526 5.38983 74.2731 5.3588 74.7385 5.32778C75.2349 5.29675 76.1346 5.20368 77.4997 5.04855V10.2607C78.1512 8.70947 79.175 7.34438 80.478 6.28954C81.657 5.45187 83.0841 4.9865 84.5423 5.04855C85.9384 4.95548 87.3035 5.42085 88.3273 6.35159C89.258 7.37541 89.7544 8.70947 89.6613 10.1056C90.3129 8.58537 91.3367 7.28233 92.6397 6.25852C93.8497 5.42085 95.3078 5.01753 96.766 5.04855C97.6657 5.01753 98.5654 5.17265 99.3721 5.51392C100.086 5.82417 100.706 6.35159 101.172 6.97208C101.451 7.37541 101.668 7.84078 101.761 8.33717C101.823 8.64742 101.854 8.95766 101.885 9.26791C101.916 9.64021 101.916 10.0746 101.916 10.633V24.3149H104.677V25.8661H93.4774V24.3149H95.8353V10.0125C95.8973 9.29894 95.7422 8.55434 95.4009 7.93385C95.0596 7.4995 94.5322 7.25131 94.0048 7.31336C92.8879 7.31336 91.8951 8.05795 90.9954 9.54713C90.0647 11.0984 89.5993 12.8668 89.6303 14.6972V24.408H91.8331V25.9592H81.3778V24.408H83.7046V10.0125C83.7667 9.29894 83.6115 8.55434 83.2703 7.93385C82.929 7.4995 82.4016 7.25131 81.8431 7.31336C80.7573 7.31336 79.7645 8.05795 78.8648 9.54713C77.965 11.0984 77.4997 12.8668 77.5307 14.6972V24.408H79.7955V25.9592H69.061V24.3769H69.0299Z" fill="#201747"/>
<path d="M115.071 22.8876C114.326 24.0045 113.302 24.9042 112.123 25.5867C110.944 26.1762 109.61 26.4865 108.276 26.4554C106.973 26.5485 105.701 26.0521 104.77 25.1524C103.871 24.0976 103.436 22.7325 103.529 21.3674C103.529 19.1957 104.677 17.1791 106.57 16.0932C108.617 14.7591 111.379 14.1076 114.884 14.1076V9.14365C114.977 8.33701 114.76 7.53037 114.264 6.87885C113.55 6.41348 112.713 6.22733 111.875 6.32041C111.286 6.28938 110.696 6.38246 110.169 6.63066C109.796 6.78578 109.548 7.12705 109.548 7.53037C109.641 7.87164 109.796 8.21291 109.951 8.55419C110.2 9.08161 110.355 9.67107 110.355 10.2605C110.386 11.0982 110.107 11.9049 109.548 12.5253C108.959 13.0838 108.152 13.363 107.314 13.301C106.57 13.332 105.825 13.0217 105.329 12.4633C104.832 11.7808 104.584 10.9431 104.646 10.1054C104.615 8.52316 105.453 7.065 106.818 6.32041C107.625 5.82401 108.493 5.48274 109.424 5.29659C110.603 5.0484 111.782 4.95532 112.992 4.95532C114.047 4.95532 115.102 5.0484 116.156 5.23454C116.994 5.38967 117.832 5.66889 118.576 6.10324C119.197 6.44451 119.693 6.97193 120.003 7.59242C120.345 8.61624 120.5 9.73312 120.407 10.819V21.3674C120.376 21.8328 120.5 22.2981 120.748 22.7325C121.027 23.0117 121.431 23.1668 121.834 23.1358C122.051 23.1048 122.268 23.0427 122.454 22.9186C122.61 22.7945 122.765 22.7325 122.951 22.7014C123.075 22.7014 123.168 22.7635 123.23 22.8566C123.323 22.9496 123.385 23.1048 123.385 23.2289C123.261 24.0665 122.796 24.8421 122.082 25.3075C121.276 26.0211 120.221 26.4244 119.135 26.4244C118.204 26.4244 117.273 26.1142 116.56 25.4937C115.908 24.8111 115.35 23.9114 115.071 22.8876ZM114.946 15.4727H114.419C112.62 15.4727 111.348 15.7829 110.603 16.3724C109.796 17.179 109.362 18.2959 109.486 19.4439C109.424 20.5297 109.61 21.6466 110.045 22.6394C110.479 23.2599 111.192 23.6322 111.968 23.5701C112.806 23.6012 113.612 23.1978 114.109 22.5463C114.698 21.7707 114.977 20.8089 114.946 19.8472V15.4727Z" fill="#201747"/>
<path d="M133.592 22.8876C132.848 24.0045 131.824 24.9042 130.676 25.5867C129.497 26.1762 128.163 26.4865 126.829 26.4554C125.526 26.5485 124.254 26.0521 123.323 25.1524C122.423 24.0976 121.989 22.7325 122.082 21.3674C122.082 19.1957 123.23 17.1791 125.123 16.0932C127.17 14.7591 129.931 14.1076 133.437 14.1076V9.14365C133.53 8.33701 133.313 7.53037 132.817 6.87885C132.103 6.41348 131.265 6.22733 130.428 6.32041C129.838 6.28938 129.249 6.38246 128.721 6.63066C128.349 6.78578 128.101 7.12705 128.101 7.53037C128.194 7.87164 128.349 8.21291 128.504 8.55419C128.752 9.08161 128.908 9.67107 128.908 10.2605C128.939 11.0982 128.659 11.9049 128.101 12.5253C127.511 13.0838 126.705 13.363 125.867 13.301C125.123 13.332 124.378 13.0217 123.882 12.4633C123.385 11.7808 123.137 10.9431 123.199 10.1054C123.168 8.52316 124.006 7.065 125.371 6.32041C126.177 5.82401 127.046 5.48274 127.977 5.29659C129.156 5.0484 130.335 4.95532 131.545 4.95532C132.599 4.95532 133.654 5.0484 134.709 5.23454C135.547 5.38967 136.385 5.66889 137.129 6.10324C137.75 6.44451 138.246 6.97193 138.556 7.59242C138.898 8.61624 139.053 9.73312 138.96 10.819V21.3674C138.929 21.8328 139.053 22.2981 139.301 22.7325C139.58 23.0117 139.983 23.1668 140.387 23.1358C140.604 23.1048 140.821 23.0427 141.007 22.9186C141.162 22.7945 141.317 22.7325 141.504 22.7014C141.628 22.7014 141.721 22.7635 141.783 22.8566C141.876 22.9496 141.938 23.1048 141.938 23.2289C141.814 24.0665 141.348 24.8421 140.635 25.3075C139.828 26.0211 138.773 26.4244 137.688 26.4244C136.757 26.4244 135.826 26.1142 135.112 25.4937C134.43 24.8111 133.872 23.9114 133.592 22.8876ZM133.468 15.4727H132.941C131.141 15.4727 129.869 15.7829 129.125 16.3724C128.318 17.179 127.884 18.2959 128.008 19.4439C127.946 20.5297 128.132 21.6466 128.566 22.6394C129.001 23.2599 129.714 23.6322 130.49 23.5701C131.327 23.6012 132.134 23.1978 132.631 22.5463C133.22 21.7707 133.499 20.8089 133.468 19.8472V15.4727Z" fill="#201747"/>
<path d="M21.407 43.1468C9.58663 43.1468 0 33.5602 0 21.7398C0 9.91937 9.58663 0.36377 21.407 0.36377C33.2274 0.36377 42.8141 9.9504 42.8141 21.7708C42.783 33.5602 33.1964 43.1468 21.407 43.1468ZM21.407 1.60476C10.2692 1.60476 1.24099 10.6329 1.24099 21.7708C1.24099 32.9087 10.2692 41.9058 21.376 41.9058C32.4828 41.9058 41.511 32.8776 41.511 21.7708C41.511 10.6329 32.5139 1.63578 21.407 1.60476Z" fill="#85754E"/>
<path d="M118.576 35.1734C118.576 36.0111 118.576 36.8177 118.576 37.6554C118.576 37.9036 118.607 38.1518 118.669 38.4C118.732 38.6171 118.918 38.7723 119.135 38.7412C119.383 38.7412 119.6 38.6171 119.755 38.431C119.879 38.3069 119.941 38.1518 120.066 38.0277C120.097 37.9966 120.128 38.0277 120.19 38.0277C120.19 38.0277 120.221 38.0587 120.221 38.0897C120.221 38.1207 120.221 38.1828 120.221 38.2138C120.097 38.8033 119.662 39.2997 119.104 39.5168C118.732 39.6409 118.328 39.672 117.956 39.5789C117.584 39.4858 117.242 39.2376 117.118 38.8653C117.056 38.7102 116.994 38.5551 116.932 38.4C116.901 38.3379 116.808 38.3379 116.777 38.3689C116.715 38.431 116.653 38.462 116.591 38.5241C116.125 38.9894 115.536 39.3307 114.884 39.4858C114.295 39.6409 113.643 39.703 113.023 39.6099C112.558 39.5789 112.154 39.3927 111.782 39.1135C111.689 39.0515 111.627 38.9894 111.534 38.9274C111.472 38.8964 111.41 38.8964 111.348 38.9274C111.255 38.9894 111.161 39.0205 111.068 39.1135C110.603 39.4858 109.983 39.672 109.393 39.6409C109.083 39.6409 108.804 39.6099 108.493 39.5168C108.121 39.3927 107.842 39.0825 107.718 38.7102C107.625 38.462 107.563 38.1828 107.563 37.9036C107.563 37.7484 107.563 37.5623 107.563 37.4072C107.563 35.918 107.563 34.4288 107.563 32.9396C107.594 32.7845 107.563 32.5983 107.501 32.4432C107.47 32.4122 107.439 32.3812 107.407 32.3812C107.252 32.4122 107.128 32.4432 106.973 32.4742C106.601 32.5363 106.229 32.3812 106.042 32.0709C105.98 31.9778 105.918 31.8537 105.918 31.7296C105.887 31.6055 105.887 31.4815 105.918 31.3574C105.918 31.0781 105.763 30.9851 105.484 31.1092C105.236 31.2333 104.988 31.3884 104.832 31.6055C104.398 32.1019 104.088 32.6914 103.902 33.3429C103.809 33.6222 103.778 33.9324 103.778 34.2116C103.778 35.6388 103.778 37.0659 103.778 38.462C103.778 38.8653 103.84 38.9274 104.274 38.9274C104.522 38.9274 104.801 38.9274 105.05 38.9274C105.143 38.9274 105.205 38.9584 105.298 38.9584C105.391 38.9894 105.422 39.0825 105.422 39.1756C105.391 39.2376 105.36 39.2686 105.298 39.3307C105.236 39.3617 105.174 39.3617 105.112 39.3617C103.685 39.3617 102.288 39.3617 100.861 39.3617C100.799 39.3617 100.737 39.3617 100.675 39.3307C100.613 39.2997 100.582 39.2686 100.551 39.2066C100.52 39.1135 100.582 39.0205 100.644 38.9894C100.706 38.9584 100.768 38.9584 100.83 38.9274C101.016 38.9274 101.172 38.9274 101.358 38.9274C101.42 38.9274 101.482 38.9274 101.544 38.9274C101.978 38.9274 102.04 38.8653 102.04 38.4C102.04 38.2448 102.04 38.0587 102.04 37.9036V32.0399C102.04 31.8848 102.04 31.7296 102.04 31.6055C102.04 31.0781 101.978 31.0471 101.42 31.0161C101.172 31.0161 100.954 31.0161 100.706 30.9851C100.644 30.9851 100.582 30.923 100.582 30.861C100.582 30.7679 100.613 30.7058 100.706 30.6438C100.768 30.6438 100.83 30.6128 100.892 30.6128C101.234 30.6128 101.575 30.5817 101.916 30.5817C102.35 30.5817 102.785 30.5507 103.188 30.4887C103.281 30.4887 103.405 30.4887 103.498 30.4887C103.529 30.4887 103.56 30.5197 103.591 30.5507C103.622 30.6438 103.654 30.7679 103.654 30.861C103.654 31.2643 103.654 31.6676 103.654 32.0709C103.654 32.164 103.685 32.226 103.716 32.3191C103.716 32.3501 103.871 32.3812 103.902 32.3501C103.964 32.2881 104.026 32.226 104.057 32.164C104.243 31.9158 104.398 31.6676 104.584 31.4504C104.801 31.2022 105.019 30.9851 105.298 30.8299C105.763 30.5197 106.291 30.4266 106.849 30.5197C107.004 30.5507 107.19 30.5817 107.345 30.5817C107.439 30.5817 107.501 30.5197 107.532 30.4266C107.563 30.3025 107.563 30.1784 107.563 30.0543C107.563 29.5579 107.563 29.0305 107.563 28.5341C107.563 28.379 107.563 28.2239 107.563 28.0998C107.563 27.9757 107.656 27.8516 107.811 27.8516C108.183 27.8516 108.586 27.8516 108.959 27.8516C109.083 27.8516 109.176 27.9446 109.176 28.0377C109.176 28.1928 109.207 28.3169 109.207 28.4721C109.207 28.9685 109.207 29.4338 109.207 29.9302C109.207 30.0853 109.238 30.2715 109.238 30.4266C109.269 30.5197 109.331 30.5817 109.424 30.5817C109.548 30.5817 109.672 30.6128 109.796 30.6128C110.138 30.6128 110.479 30.6128 110.82 30.6128C110.913 30.6128 111.037 30.6128 111.13 30.6438C111.193 30.6748 111.224 30.7058 111.224 30.7679C111.224 30.8299 111.161 30.892 111.13 30.892C111.037 30.923 110.913 30.923 110.82 30.923C110.51 30.923 110.169 30.923 109.858 30.923C109.703 30.923 109.548 30.954 109.424 30.954C109.331 30.9851 109.238 31.0471 109.238 31.1712C109.238 31.3263 109.207 31.5125 109.207 31.6676C109.207 32.0709 109.207 32.4742 109.207 32.8776C109.207 34.1806 109.207 35.5147 109.207 36.8177C109.207 37.221 109.238 37.6243 109.238 38.0277C109.238 38.2138 109.3 38.3689 109.393 38.5241C109.455 38.6482 109.579 38.7412 109.734 38.8033C110.169 38.9274 110.665 38.8343 111.006 38.5241C111.099 38.462 111.13 38.3379 111.13 38.2448C111.13 38.1518 111.099 38.0277 111.099 37.9346C110.975 37.19 111.193 36.4144 111.689 35.8559C111.968 35.5457 112.278 35.2975 112.651 35.1113C113.24 34.8011 113.861 34.5839 114.512 34.4598C115.133 34.3667 115.753 34.2737 116.374 34.2426C116.467 34.2426 116.591 34.2116 116.684 34.2116C116.777 34.1806 116.839 34.1185 116.87 34.0565C116.901 33.9945 116.901 33.9324 116.901 33.8704C116.901 33.2809 116.901 32.6914 116.901 32.1019C116.901 31.9778 116.87 31.8537 116.839 31.7296C116.777 31.3574 116.498 31.0161 116.125 30.892C116.094 30.861 116.032 30.861 116.001 30.8299C115.164 30.5507 114.264 30.6128 113.488 31.0161C113.333 31.0781 113.209 31.2022 113.085 31.3263C113.023 31.4194 113.023 31.5435 113.054 31.6366C113.178 31.7917 113.302 31.9158 113.426 32.0709C113.55 32.226 113.612 32.4432 113.612 32.6604C113.581 33.1568 113.178 33.5291 112.682 33.4981C112.278 33.467 111.937 33.1878 111.875 32.7845C111.782 32.3501 111.875 31.8848 112.185 31.5435C112.402 31.2953 112.651 31.0781 112.93 30.954C113.488 30.6438 114.109 30.4576 114.76 30.4266C115.288 30.3956 115.784 30.3956 116.312 30.4266C116.684 30.4576 117.087 30.5197 117.428 30.6748C117.863 30.8299 118.204 31.1712 118.359 31.6055C118.452 31.7917 118.483 32.0089 118.514 32.226C118.514 32.5053 118.545 32.7845 118.545 33.0637C118.576 33.7773 118.576 34.4908 118.576 35.1734ZM116.932 36.0731C116.932 35.8559 116.932 35.6077 116.932 35.3906C116.932 35.2665 116.932 35.1424 116.901 35.0183C116.87 34.8942 116.777 34.8011 116.653 34.7701C116.591 34.7701 116.529 34.7701 116.467 34.7701C115.815 34.7701 115.195 34.8631 114.574 35.0493C114.264 35.1424 113.985 35.2665 113.706 35.4526C113.054 35.8559 112.682 36.6005 112.775 37.3451C112.837 38.0587 113.364 38.6482 114.047 38.8343C114.574 38.9584 115.133 38.9274 115.629 38.7102C116.405 38.462 116.932 37.7484 116.932 36.9418C116.932 36.8487 116.932 36.7867 116.932 36.6936C116.932 36.4764 116.932 36.2593 116.932 36.0731Z" fill="#59595B"/>
<path d="M88.0481 44.636C87.4586 44.667 86.8691 44.6049 86.3107 44.5119C85.8143 44.4188 85.3489 44.2637 84.9146 44.0155C84.6974 43.8914 84.4802 43.7363 84.2941 43.5501C83.6736 42.8676 83.6426 41.8437 84.232 41.1302C84.4492 40.882 84.7284 40.6338 85.0387 40.4787C85.3489 40.3235 85.6592 40.1994 85.9694 40.0443C86.0625 40.0133 86.1556 39.9512 86.2486 39.8892C86.2797 39.8582 86.2797 39.8271 86.3107 39.7961C86.3107 39.7651 86.3107 39.7341 86.2797 39.703C86.2797 39.703 86.2797 39.703 86.2486 39.703C86.1556 39.672 86.0315 39.672 85.9384 39.641C85.473 39.5789 85.0387 39.3928 84.6354 39.1136C83.9838 38.6482 83.8287 37.7795 84.2631 37.128C84.2941 37.0659 84.3561 37.0349 84.3872 36.9729C84.5733 36.7867 84.7595 36.6316 85.0077 36.5075C85.2869 36.3834 85.5661 36.2903 85.8453 36.2283C85.9384 36.1973 86.0625 36.1662 86.1556 36.1352C86.2176 36.1042 86.2486 36.0111 86.2176 35.9491C86.2176 35.9491 86.2176 35.918 86.1866 35.918C86.0935 35.856 86.0004 35.7939 85.9384 35.7319C85.7522 35.5768 85.5661 35.4527 85.38 35.2975C84.9146 34.8632 84.6664 34.2737 84.6664 33.6222C84.6354 33.1568 84.7284 32.7225 84.9146 32.3192C85.1628 31.7607 85.5971 31.2643 86.1556 30.9851C86.3727 30.861 86.6209 30.7679 86.8691 30.7059C87.6448 30.4887 88.4824 30.4887 89.2891 30.6749C89.7855 30.799 90.2198 31.0161 90.5921 31.3574C90.6852 31.4195 90.7472 31.4815 90.8403 31.5436C90.9023 31.5746 90.9644 31.5746 91.0264 31.5125C91.0885 31.4505 91.1505 31.3884 91.1816 31.3264C91.2746 31.2023 91.3677 31.0782 91.4608 30.9541C91.74 30.6128 92.1744 30.4577 92.6087 30.5197C92.7948 30.5508 92.95 30.6128 93.0741 30.7369C93.1982 30.83 93.2602 30.9851 93.2602 31.1402C93.2602 31.2333 93.2602 31.3264 93.2602 31.3884C93.2602 31.5746 93.1671 31.7607 92.981 31.8538C92.7638 31.9779 92.4846 31.9469 92.3295 31.7607C92.2054 31.6676 92.1123 31.5436 91.9882 31.4505C91.8641 31.3574 91.678 31.3574 91.5849 31.4505C91.3677 31.6366 91.2436 31.9158 91.3057 32.1951C91.3367 32.2881 91.3367 32.4122 91.3677 32.5053C91.4298 32.7845 91.4608 33.0638 91.4918 33.343C91.5228 34.5529 90.7782 35.6388 89.6303 36.0111C89.1339 36.1662 88.5755 36.2593 88.0481 36.2593C87.6758 36.2593 87.2725 36.2593 86.9002 36.2903C86.4038 36.3214 85.9074 36.4455 85.473 36.6626C85.3489 36.7247 85.2248 36.8177 85.1007 36.9108C84.9146 37.0349 84.8215 37.2211 84.7595 37.4382C84.6974 37.6864 84.8215 37.9657 85.0697 38.0898C85.2248 38.1518 85.411 38.1828 85.5661 38.2139C85.8143 38.2449 86.0315 38.2449 86.2797 38.2449C87.5207 38.2449 88.7616 38.2449 90.0026 38.2449C90.406 38.2449 90.8093 38.2759 91.2126 38.4C91.3367 38.431 91.4608 38.4621 91.5849 38.5241C92.2674 38.8033 92.7328 39.3928 92.8569 40.1064C93.012 40.7269 92.981 41.3784 92.8259 42.0299C92.6708 42.7435 92.2364 43.395 91.6159 43.7983C91.0264 44.1706 90.406 44.4188 89.7234 44.5429C89.1339 44.6049 88.6065 44.636 88.0481 44.636ZM88.8547 39.641C88.5134 39.641 88.1722 39.641 87.8309 39.641C87.7068 39.641 87.5827 39.672 87.4586 39.703C86.8691 39.9202 86.3107 40.2925 85.8763 40.7579C85.5971 41.0371 85.411 41.3784 85.3179 41.7507C85.1318 42.3712 85.3179 43.0847 85.8453 43.4881C86.0625 43.6742 86.3107 43.8293 86.5589 43.9224C86.9312 44.0775 87.3345 44.1396 87.7378 44.1706C88.1101 44.1706 88.5134 44.1706 88.8857 44.1706C89.4132 44.1396 89.9096 44.0465 90.4059 43.8604C90.7782 43.7363 91.1195 43.5501 91.3987 43.3019C91.74 43.0227 92.0192 42.6504 92.1433 42.216C92.2364 41.8748 92.2674 41.5335 92.2054 41.1922C92.1744 40.6958 91.8641 40.2305 91.4298 40.0133C91.1816 39.8892 90.9023 39.7961 90.6541 39.7651C90.0647 39.641 89.4442 39.61 88.8547 39.641ZM89.7234 33.4361C89.7234 33.2189 89.7234 33.0017 89.7234 32.7845C89.6924 32.4122 89.6303 32.0089 89.5062 31.6677C89.3511 31.2643 89.0409 30.9851 88.6375 30.892C88.2963 30.799 87.924 30.799 87.5517 30.892C87.1173 30.9851 86.7761 31.2954 86.6209 31.6987C86.5589 31.8848 86.4968 32.071 86.4658 32.2571C86.3107 33.0327 86.3417 33.8084 86.4658 34.5529C86.4968 34.7081 86.5589 34.8942 86.6209 35.0493C86.7761 35.4837 87.1794 35.7939 87.6448 35.825C87.8929 35.856 88.1101 35.856 88.3583 35.856C89.0098 35.856 89.5683 35.3596 89.6303 34.7081C89.7234 34.2737 89.7544 33.8394 89.7234 33.4361Z" fill="#59595B"/>
<path d="M96.6109 39.7651C95.9904 39.7961 95.3699 39.672 94.7804 39.3928C93.7256 38.9274 92.9189 38.0277 92.5466 36.9419C92.1123 35.794 92.0813 34.553 92.5156 33.4051C92.95 32.133 93.9428 31.1092 95.2458 30.6749C96.1765 30.3336 97.2003 30.3646 98.1621 30.6749C99.4031 31.0782 100.365 32.071 100.768 33.343C101.172 34.4289 101.172 35.6078 100.799 36.6937C100.396 37.9967 99.4031 39.0205 98.1311 39.4859C97.6347 39.7031 97.1383 39.7961 96.6109 39.7651ZM94.253 35.1424C94.284 35.7629 94.3151 36.3834 94.3771 37.0039C94.4081 37.3142 94.4702 37.5934 94.5322 37.8726C94.5943 38.0588 94.6563 38.2449 94.7184 38.4C94.9355 38.8344 95.3078 39.1756 95.7422 39.2997C96.2076 39.4549 96.7039 39.4859 97.2003 39.3618C97.8208 39.2687 98.3172 38.8344 98.5344 38.2759C98.6275 38.0588 98.6895 37.8416 98.7516 37.6244C98.8757 37.097 98.9688 36.5385 98.9688 35.9801C98.9688 35.3906 98.9998 34.8322 98.9688 34.2427C98.9377 33.7773 98.9067 33.312 98.8136 32.8466C98.7826 32.5674 98.6895 32.2882 98.5965 32.04C98.3793 31.4505 97.8829 31.0472 97.2624 30.9231C96.9211 30.861 96.5799 30.83 96.2386 30.8921C95.463 30.9541 94.8114 31.4815 94.5632 32.2261C94.4391 32.5984 94.3461 33.0017 94.284 33.4051C94.315 33.9635 94.284 34.553 94.253 35.1424Z" fill="#59595B"/>
<path d="M72.4116 38.0278C72.4116 37.6555 72.4116 37.2522 72.4116 36.8799C72.4116 36.7558 72.5047 36.6317 72.6288 36.6007C72.7529 36.6007 72.846 36.6627 72.877 36.7558C72.939 36.9109 73.0011 37.0661 73.0631 37.2212C73.2493 37.6245 73.4975 38.0278 73.8077 38.3381C74.3972 38.9275 75.1728 39.2688 76.0105 39.2688C76.3828 39.2998 76.7551 39.2378 77.0964 39.1137C77.2825 39.0516 77.4997 38.9586 77.6858 38.8345C78.1512 38.5552 78.4614 38.0588 78.4925 37.5004C78.5235 37.2522 78.4304 36.973 78.2753 36.7868C78.0891 36.6007 77.903 36.4456 77.6548 36.3525C77.2825 36.1974 76.8792 36.0422 76.5069 35.9802C75.9174 35.8561 75.3279 35.732 74.7385 35.5769C74.4282 35.4838 74.118 35.3907 73.8077 35.2666C73.6216 35.2046 73.4665 35.1115 73.2803 34.9874C72.877 34.7392 72.5668 34.3359 72.4737 33.8705C72.3496 33.3431 72.3496 32.7846 72.5047 32.2882C72.6908 31.6057 73.1562 31.0783 73.8077 30.768C74.087 30.6129 74.3662 30.5198 74.6454 30.4888C75.2038 30.3957 75.7933 30.4268 76.3828 30.5198C76.7241 30.5819 77.0343 30.706 77.3446 30.9232C77.4066 30.9542 77.4376 30.9852 77.4997 31.0473C77.6548 31.1403 77.7479 31.1093 77.903 30.9852C77.9961 30.8921 78.0891 30.7991 78.1822 30.706C78.2132 30.675 78.2443 30.675 78.3063 30.675C78.3684 30.706 78.3994 30.768 78.4304 30.7991C78.4614 30.8921 78.4614 30.9542 78.4614 31.0473C78.4614 31.5747 78.4614 32.0711 78.4614 32.5985C78.4614 32.6916 78.4304 32.8157 78.4304 32.9087C78.4304 32.9708 78.3684 33.0328 78.3063 33.0018C78.2443 33.0018 78.1822 33.0018 78.1202 32.9398C78.0581 32.8467 78.0271 32.7536 77.9961 32.6605C77.903 32.4123 77.7789 32.1952 77.6548 31.978C77.2825 31.3265 76.631 30.8921 75.8864 30.7991C75.421 30.737 74.9246 30.768 74.4903 30.9232C74.2111 31.0162 73.9629 31.1403 73.7767 31.3265C73.4975 31.5747 73.3113 31.947 73.2803 32.3503C73.2493 32.5675 73.3424 32.7846 73.4665 32.9398C73.5906 33.0949 73.7767 33.25 73.9629 33.3431C74.2731 33.4982 74.6454 33.6533 74.9867 33.7154C75.39 33.8085 75.8243 33.9015 76.2587 33.9946C76.5689 34.0567 76.8792 34.1187 77.1894 34.1808C77.5617 34.2738 77.934 34.3979 78.2753 34.6151C78.7407 34.8633 79.0819 35.2666 79.2681 35.763C79.4853 36.4145 79.4853 37.1281 79.2681 37.7796C78.9889 38.6173 78.3373 39.2688 77.4997 39.517C76.693 39.7962 75.8554 39.8272 75.0177 39.6101C74.6454 39.517 74.3041 39.3309 73.9939 39.1137C73.8388 39.0206 73.7147 38.9275 73.5906 38.8034C73.4975 38.7724 73.4044 38.7724 73.3424 38.8345C73.2493 38.9586 73.1252 39.1137 73.0321 39.2378C72.9701 39.2998 72.908 39.3619 72.846 39.4239C72.7219 39.486 72.5978 39.4239 72.5357 39.3309V39.2998C72.5357 39.2068 72.5047 39.1447 72.5047 39.0516C72.4116 38.7414 72.4116 38.4001 72.4116 38.0278Z" fill="#59595B"/>
<path d="M82.6498 34.7392C82.6498 35.9181 82.6498 37.0971 82.6498 38.276C82.6498 38.4622 82.6808 38.6483 82.6808 38.8655C82.7118 38.9585 82.7739 39.0206 82.867 39.0206C83.0531 39.0516 83.2393 39.0516 83.4564 39.0516C83.6115 39.0516 83.7667 39.0827 83.8908 39.0827C83.9838 39.1137 84.0459 39.2378 84.0149 39.3308C84.0149 39.3619 83.9838 39.3929 83.9218 39.4239C83.8287 39.4549 83.7667 39.4549 83.6736 39.4549C82.3395 39.4549 81.0055 39.4549 79.6714 39.4549C79.5783 39.4549 79.5163 39.4239 79.4232 39.4239C79.3612 39.3929 79.3301 39.3308 79.3301 39.2688C79.3301 39.2067 79.3612 39.1447 79.4232 39.1137C79.4853 39.0826 79.5473 39.0516 79.6094 39.0516C79.7645 39.0516 79.9196 39.0516 80.0437 39.0516C80.2299 39.0516 80.385 39.0516 80.5711 39.0516C80.8193 39.0516 80.9124 38.9586 80.9124 38.6793C80.9124 38.5863 80.9124 38.4932 80.9124 38.4311C80.9124 38.307 80.9124 38.1829 80.9124 38.0588C80.9124 36.0422 80.9124 34.0256 80.9124 32.009C80.9124 31.7608 80.9124 31.5436 80.8814 31.2955C80.8814 31.1714 80.7883 31.1093 80.6642 31.0783C80.385 31.0473 80.1058 31.0473 79.8265 31.0473C79.7024 31.0473 79.5783 31.0162 79.4542 30.9852C79.4232 30.9852 79.3922 30.9232 79.3922 30.8921C79.3612 30.8301 79.3922 30.768 79.4542 30.737C79.5473 30.706 79.6094 30.706 79.7024 30.675C80.1678 30.6439 80.6332 30.6439 81.1296 30.6439C81.5019 30.6439 81.8431 30.6129 82.2154 30.5509C82.5257 30.4888 82.5877 30.5819 82.5877 30.8921C82.5877 31.0783 82.5877 31.2334 82.5877 31.4196L82.6498 34.7392Z" fill="#59595B"/>
<path d="M82.8669 28.41C82.8669 29.0616 82.3705 29.62 81.719 29.651C81.0675 29.651 80.5401 29.1236 80.509 28.4721C80.509 27.8206 81.0054 27.2931 81.657 27.2621C82.3085 27.2311 82.8359 27.7275 82.8669 28.379C82.8669 28.41 82.8669 28.41 82.8669 28.41Z" fill="#59595B"/>
<path d="M118.576 35.1734C118.576 36.0111 118.576 36.8177 118.576 37.6554C118.576 37.9036 118.607 38.1518 118.669 38.4C118.732 38.6171 118.918 38.7723 119.135 38.7412C119.383 38.7412 119.6 38.6171 119.755 38.431C119.879 38.3069 119.941 38.1518 120.066 38.0277C120.097 37.9966 120.128 38.0277 120.19 38.0277C120.19 38.0277 120.221 38.0587 120.221 38.0897C120.221 38.1207 120.221 38.1828 120.221 38.2138C120.097 38.8033 119.662 39.2997 119.104 39.5168C118.732 39.6409 118.328 39.672 117.956 39.5789C117.584 39.4858 117.242 39.2376 117.118 38.8653C117.056 38.7102 116.994 38.5551 116.932 38.4C116.901 38.3379 116.808 38.3379 116.777 38.3689C116.715 38.431 116.653 38.462 116.591 38.5241C116.125 38.9894 115.536 39.3307 114.884 39.4858C114.295 39.6409 113.643 39.703 113.023 39.6099C112.558 39.5789 112.154 39.3927 111.782 39.1135C111.689 39.0515 111.627 38.9894 111.534 38.9274C111.472 38.8964 111.41 38.8964 111.348 38.9274C111.255 38.9894 111.161 39.0205 111.068 39.1135C110.603 39.4858 109.983 39.672 109.393 39.6409C109.083 39.6409 108.804 39.6099 108.493 39.5168C108.121 39.3927 107.842 39.0825 107.718 38.7102C107.625 38.462 107.563 38.1828 107.563 37.9036C107.563 37.7484 107.563 37.5623 107.563 37.4072C107.563 35.918 107.563 34.4288 107.563 32.9396C107.594 32.7845 107.563 32.5983 107.501 32.4432C107.47 32.4122 107.439 32.3812 107.407 32.3812C107.252 32.4122 107.128 32.4432 106.973 32.4742C106.601 32.5363 106.229 32.3812 106.042 32.0709C105.98 31.9778 105.918 31.8537 105.918 31.7296C105.887 31.6055 105.887 31.4815 105.918 31.3574C105.918 31.0781 105.763 30.9851 105.484 31.1092C105.236 31.2333 104.988 31.3884 104.832 31.6055C104.398 32.1019 104.088 32.6914 103.902 33.3429C103.809 33.6222 103.778 33.9324 103.778 34.2116C103.778 35.6388 103.778 37.0659 103.778 38.462C103.778 38.8653 103.84 38.9274 104.274 38.9274C104.522 38.9274 104.801 38.9274 105.05 38.9274C105.143 38.9274 105.205 38.9584 105.298 38.9584C105.391 38.9894 105.422 39.0825 105.422 39.1756C105.391 39.2376 105.36 39.2686 105.298 39.3307C105.236 39.3617 105.174 39.3617 105.112 39.3617C103.685 39.3617 102.288 39.3617 100.861 39.3617C100.799 39.3617 100.737 39.3617 100.675 39.3307C100.613 39.2997 100.582 39.2686 100.551 39.2066C100.52 39.1135 100.582 39.0205 100.644 38.9894C100.706 38.9584 100.768 38.9584 100.83 38.9274C101.016 38.9274 101.172 38.9274 101.358 38.9274C101.42 38.9274 101.482 38.9274 101.544 38.9274C101.978 38.9274 102.04 38.8653 102.04 38.4C102.04 38.2448 102.04 38.0587 102.04 37.9036V32.0399C102.04 31.8848 102.04 31.7296 102.04 31.6055C102.04 31.0781 101.978 31.0471 101.42 31.0161C101.172 31.0161 100.954 31.0161 100.706 30.9851C100.644 30.9851 100.582 30.923 100.582 30.861C100.582 30.7679 100.613 30.7058 100.706 30.6438C100.768 30.6438 100.83 30.6128 100.892 30.6128C101.234 30.6128 101.575 30.5817 101.916 30.5817C102.35 30.5817 102.785 30.5507 103.188 30.4887C103.281 30.4887 103.405 30.4887 103.498 30.4887C103.529 30.4887 103.56 30.5197 103.591 30.5507C103.622 30.6438 103.654 30.7679 103.654 30.861C103.654 31.2643 103.654 31.6676 103.654 32.0709C103.654 32.164 103.685 32.226 103.716 32.3191C103.716 32.3501 103.871 32.3812 103.902 32.3501C103.964 32.2881 104.026 32.226 104.057 32.164C104.243 31.9158 104.398 31.6676 104.584 31.4504C104.801 31.2022 105.019 30.9851 105.298 30.8299C105.763 30.5197 106.291 30.4266 106.849 30.5197C107.004 30.5507 107.19 30.5817 107.345 30.5817C107.439 30.5817 107.501 30.5197 107.532 30.4266C107.563 30.3025 107.563 30.1784 107.563 30.0543C107.563 29.5579 107.563 29.0305 107.563 28.5341C107.563 28.379 107.563 28.2239 107.563 28.0998C107.563 27.9757 107.656 27.8516 107.811 27.8516C108.183 27.8516 108.586 27.8516 108.959 27.8516C109.083 27.8516 109.176 27.9446 109.176 28.0377C109.176 28.1928 109.207 28.3169 109.207 28.4721C109.207 28.9685 109.207 29.4338 109.207 29.9302C109.207 30.0853 109.238 30.2715 109.238 30.4266C109.269 30.5197 109.331 30.5817 109.424 30.5817C109.548 30.5817 109.672 30.6128 109.796 30.6128C110.138 30.6128 110.479 30.6128 110.82 30.6128C110.913 30.6128 111.037 30.6128 111.13 30.6438C111.193 30.6748 111.224 30.7058 111.224 30.7679C111.224 30.8299 111.161 30.892 111.13 30.892C111.037 30.923 110.913 30.923 110.82 30.923C110.51 30.923 110.169 30.923 109.858 30.923C109.703 30.923 109.548 30.954 109.424 30.954C109.331 30.9851 109.238 31.0471 109.238 31.1712C109.238 31.3263 109.207 31.5125 109.207 31.6676C109.207 32.0709 109.207 32.4742 109.207 32.8776C109.207 34.1806 109.207 35.5147 109.207 36.8177C109.207 37.221 109.238 37.6243 109.238 38.0277C109.238 38.2138 109.3 38.3689 109.393 38.5241C109.455 38.6482 109.579 38.7412 109.734 38.8033C110.169 38.9274 110.665 38.8343 111.006 38.5241C111.099 38.462 111.13 38.3379 111.13 38.2448C111.13 38.1518 111.099 38.0277 111.099 37.9346C110.975 37.19 111.193 36.4144 111.689 35.8559C111.968 35.5457 112.278 35.2975 112.651 35.1113C113.24 34.8011 113.861 34.5839 114.512 34.4598C115.133 34.3667 115.753 34.2737 116.374 34.2426C116.467 34.2426 116.591 34.2116 116.684 34.2116C116.777 34.1806 116.839 34.1185 116.87 34.0565C116.901 33.9945 116.901 33.9324 116.901 33.8704C116.901 33.2809 116.901 32.6914 116.901 32.1019C116.901 31.9778 116.87 31.8537 116.839 31.7296C116.777 31.3574 116.498 31.0161 116.125 30.892C116.094 30.861 116.032 30.861 116.001 30.8299C115.164 30.5507 114.264 30.6128 113.488 31.0161C113.333 31.0781 113.209 31.2022 113.085 31.3263C113.023 31.4194 113.023 31.5435 113.054 31.6366C113.178 31.7917 113.302 31.9158 113.426 32.0709C113.55 32.226 113.612 32.4432 113.612 32.6604C113.581 33.1568 113.178 33.5291 112.682 33.4981C112.278 33.467 111.937 33.1878 111.875 32.7845C111.782 32.3501 111.875 31.8848 112.185 31.5435C112.402 31.2953 112.651 31.0781 112.93 30.954C113.488 30.6438 114.109 30.4576 114.76 30.4266C115.288 30.3956 115.784 30.3956 116.312 30.4266C116.684 30.4576 117.087 30.5197 117.428 30.6748C117.863 30.8299 118.204 31.1712 118.359 31.6055C118.452 31.7917 118.483 32.0089 118.514 32.226C118.514 32.5053 118.545 32.7845 118.545 33.0637C118.576 33.7773 118.576 34.4908 118.576 35.1734ZM116.932 36.0731C116.932 35.8559 116.932 35.6077 116.932 35.3906C116.932 35.2665 116.932 35.1424 116.901 35.0183C116.87 34.8942 116.777 34.8011 116.653 34.7701C116.591 34.7701 116.529 34.7701 116.467 34.7701C115.815 34.7701 115.195 34.8631 114.574 35.0493C114.264 35.1424 113.985 35.2665 113.706 35.4526C113.054 35.8559 112.682 36.6005 112.775 37.3451C112.837 38.0587 113.364 38.6482 114.047 38.8343C114.574 38.9584 115.133 38.9274 115.629 38.7102C116.405 38.462 116.932 37.7484 116.932 36.9418C116.932 36.8487 116.932 36.7867 116.932 36.6936C116.932 36.4764 116.932 36.2593 116.932 36.0731Z" fill="#59595B"/>
<path d="M88.0481 44.636C87.4586 44.667 86.8691 44.6049 86.3107 44.5119C85.8143 44.4188 85.3489 44.2637 84.9146 44.0155C84.6974 43.8914 84.4802 43.7363 84.2941 43.5501C83.6736 42.8676 83.6426 41.8437 84.232 41.1302C84.4492 40.882 84.7284 40.6338 85.0387 40.4787C85.3489 40.3235 85.6592 40.1994 85.9694 40.0443C86.0625 40.0133 86.1556 39.9512 86.2486 39.8892C86.2797 39.8582 86.2797 39.8271 86.3107 39.7961C86.3107 39.7651 86.3107 39.7341 86.2797 39.703C86.2797 39.703 86.2797 39.703 86.2486 39.703C86.1556 39.672 86.0315 39.672 85.9384 39.641C85.473 39.5789 85.0387 39.3928 84.6354 39.1136C83.9838 38.6482 83.8287 37.7795 84.2631 37.128C84.2941 37.0659 84.3561 37.0349 84.3872 36.9729C84.5733 36.7867 84.7595 36.6316 85.0077 36.5075C85.2869 36.3834 85.5661 36.2903 85.8453 36.2283C85.9384 36.1973 86.0625 36.1662 86.1556 36.1352C86.2176 36.1042 86.2486 36.0111 86.2176 35.9491C86.2176 35.9491 86.2176 35.918 86.1866 35.918C86.0935 35.856 86.0004 35.7939 85.9384 35.7319C85.7522 35.5768 85.5661 35.4527 85.38 35.2975C84.9146 34.8632 84.6664 34.2737 84.6664 33.6222C84.6354 33.1568 84.7284 32.7225 84.9146 32.3192C85.1628 31.7607 85.5971 31.2643 86.1556 30.9851C86.3727 30.861 86.6209 30.7679 86.8691 30.7059C87.6448 30.4887 88.4824 30.4887 89.2891 30.6749C89.7855 30.799 90.2198 31.0161 90.5921 31.3574C90.6852 31.4195 90.7472 31.4815 90.8403 31.5436C90.9023 31.5746 90.9644 31.5746 91.0264 31.5125C91.0885 31.4505 91.1505 31.3884 91.1816 31.3264C91.2746 31.2023 91.3677 31.0782 91.4608 30.9541C91.74 30.6128 92.1744 30.4577 92.6087 30.5197C92.7948 30.5508 92.95 30.6128 93.0741 30.7369C93.1982 30.83 93.2602 30.9851 93.2602 31.1402C93.2602 31.2333 93.2602 31.3264 93.2602 31.3884C93.2602 31.5746 93.1671 31.7607 92.981 31.8538C92.7638 31.9779 92.4846 31.9469 92.3295 31.7607C92.2054 31.6676 92.1123 31.5436 91.9882 31.4505C91.8641 31.3574 91.678 31.3574 91.5849 31.4505C91.3677 31.6366 91.2436 31.9158 91.3057 32.1951C91.3367 32.2881 91.3367 32.4122 91.3677 32.5053C91.4298 32.7845 91.4608 33.0638 91.4918 33.343C91.5228 34.5529 90.7782 35.6388 89.6303 36.0111C89.1339 36.1662 88.5755 36.2593 88.0481 36.2593C87.6758 36.2593 87.2725 36.2593 86.9002 36.2903C86.4038 36.3214 85.9074 36.4455 85.473 36.6626C85.3489 36.7247 85.2248 36.8177 85.1007 36.9108C84.9146 37.0349 84.8215 37.2211 84.7595 37.4382C84.6974 37.6864 84.8215 37.9657 85.0697 38.0898C85.2248 38.1518 85.411 38.1828 85.5661 38.2139C85.8143 38.2449 86.0315 38.2449 86.2797 38.2449C87.5207 38.2449 88.7616 38.2449 90.0026 38.2449C90.406 38.2449 90.8093 38.2759 91.2126 38.4C91.3367 38.431 91.4608 38.4621 91.5849 38.5241C92.2674 38.8033 92.7328 39.3928 92.8569 40.1064C93.012 40.7269 92.981 41.3784 92.8259 42.0299C92.6708 42.7435 92.2364 43.395 91.6159 43.7983C91.0264 44.1706 90.406 44.4188 89.7234 44.5429C89.1339 44.6049 88.6065 44.636 88.0481 44.636ZM88.8547 39.641C88.5134 39.641 88.1722 39.641 87.8309 39.641C87.7068 39.641 87.5827 39.672 87.4586 39.703C86.8691 39.9202 86.3107 40.2925 85.8763 40.7579C85.5971 41.0371 85.411 41.3784 85.3179 41.7507C85.1318 42.3712 85.3179 43.0847 85.8453 43.4881C86.0625 43.6742 86.3107 43.8293 86.5589 43.9224C86.9312 44.0775 87.3345 44.1396 87.7378 44.1706C88.1101 44.1706 88.5134 44.1706 88.8857 44.1706C89.4132 44.1396 89.9096 44.0465 90.4059 43.8604C90.7782 43.7363 91.1195 43.5501 91.3987 43.3019C91.74 43.0227 92.0192 42.6504 92.1433 42.216C92.2364 41.8748 92.2674 41.5335 92.2054 41.1922C92.1744 40.6958 91.8641 40.2305 91.4298 40.0133C91.1816 39.8892 90.9023 39.7961 90.6541 39.7651C90.0647 39.641 89.4442 39.61 88.8547 39.641ZM89.7234 33.4361C89.7234 33.2189 89.7234 33.0017 89.7234 32.7845C89.6924 32.4122 89.6303 32.0089 89.5062 31.6677C89.3511 31.2643 89.0409 30.9851 88.6375 30.892C88.2963 30.799 87.924 30.799 87.5517 30.892C87.1173 30.9851 86.7761 31.2954 86.6209 31.6987C86.5589 31.8848 86.4968 32.071 86.4658 32.2571C86.3107 33.0327 86.3417 33.8084 86.4658 34.5529C86.4968 34.7081 86.5589 34.8942 86.6209 35.0493C86.7761 35.4837 87.1794 35.7939 87.6448 35.825C87.8929 35.856 88.1101 35.856 88.3583 35.856C89.0098 35.856 89.5683 35.3596 89.6303 34.7081C89.7234 34.2737 89.7544 33.8394 89.7234 33.4361Z" fill="#59595B"/>
<path d="M96.6109 39.7651C95.9904 39.7961 95.3699 39.672 94.7804 39.3928C93.7256 38.9274 92.9189 38.0277 92.5466 36.9419C92.1123 35.794 92.0813 34.553 92.5156 33.4051C92.95 32.133 93.9428 31.1092 95.2458 30.6749C96.1765 30.3336 97.2003 30.3646 98.1621 30.6749C99.4031 31.0782 100.365 32.071 100.768 33.343C101.172 34.4289 101.172 35.6078 100.799 36.6937C100.396 37.9967 99.4031 39.0205 98.1311 39.4859C97.6347 39.7031 97.1383 39.7961 96.6109 39.7651ZM94.253 35.1424C94.284 35.7629 94.3151 36.3834 94.3771 37.0039C94.4081 37.3142 94.4702 37.5934 94.5322 37.8726C94.5943 38.0588 94.6563 38.2449 94.7184 38.4C94.9355 38.8344 95.3078 39.1756 95.7422 39.2997C96.2076 39.4549 96.7039 39.4859 97.2003 39.3618C97.8208 39.2687 98.3172 38.8344 98.5344 38.2759C98.6275 38.0588 98.6895 37.8416 98.7516 37.6244C98.8757 37.097 98.9688 36.5385 98.9688 35.9801C98.9688 35.3906 98.9998 34.8322 98.9688 34.2427C98.9377 33.7773 98.9067 33.312 98.8136 32.8466C98.7826 32.5674 98.6895 32.2882 98.5965 32.04C98.3793 31.4505 97.8829 31.0472 97.2624 30.9231C96.9211 30.861 96.5799 30.83 96.2386 30.8921C95.463 30.9541 94.8114 31.4815 94.5632 32.2261C94.4391 32.5984 94.3461 33.0017 94.284 33.4051C94.315 33.9635 94.284 34.553 94.253 35.1424Z" fill="#59595B"/>
<path d="M72.4116 38.0278C72.4116 37.6555 72.4116 37.2522 72.4116 36.8799C72.4116 36.7558 72.5047 36.6317 72.6288 36.6007C72.7529 36.6007 72.846 36.6627 72.877 36.7558C72.939 36.9109 73.0011 37.0661 73.0631 37.2212C73.2493 37.6245 73.4975 38.0278 73.8077 38.3381C74.3972 38.9275 75.1728 39.2688 76.0105 39.2688C76.3828 39.2998 76.7551 39.2378 77.0964 39.1137C77.2825 39.0516 77.4997 38.9586 77.6858 38.8345C78.1512 38.5552 78.4614 38.0588 78.4925 37.5004C78.5235 37.2522 78.4304 36.973 78.2753 36.7868C78.0891 36.6007 77.903 36.4456 77.6548 36.3525C77.2825 36.1974 76.8792 36.0422 76.5069 35.9802C75.9174 35.8561 75.3279 35.732 74.7385 35.5769C74.4282 35.4838 74.118 35.3907 73.8077 35.2666C73.6216 35.2046 73.4665 35.1115 73.2803 34.9874C72.877 34.7392 72.5668 34.3359 72.4737 33.8705C72.3496 33.3431 72.3496 32.7846 72.5047 32.2882C72.6908 31.6057 73.1562 31.0783 73.8077 30.768C74.087 30.6129 74.3662 30.5198 74.6454 30.4888C75.2038 30.3957 75.7933 30.4268 76.3828 30.5198C76.7241 30.5819 77.0343 30.706 77.3446 30.9232C77.4066 30.9542 77.4376 30.9852 77.4997 31.0473C77.6548 31.1403 77.7479 31.1093 77.903 30.9852C77.9961 30.8921 78.0891 30.7991 78.1822 30.706C78.2132 30.675 78.2443 30.675 78.3063 30.675C78.3684 30.706 78.3994 30.768 78.4304 30.7991C78.4614 30.8921 78.4614 30.9542 78.4614 31.0473C78.4614 31.5747 78.4614 32.0711 78.4614 32.5985C78.4614 32.6916 78.4304 32.8157 78.4304 32.9087C78.4304 32.9708 78.3684 33.0328 78.3063 33.0018C78.2443 33.0018 78.1822 33.0018 78.1202 32.9398C78.0581 32.8467 78.0271 32.7536 77.9961 32.6605C77.903 32.4123 77.7789 32.1952 77.6548 31.978C77.2825 31.3265 76.631 30.8921 75.8864 30.7991C75.421 30.737 74.9246 30.768 74.4903 30.9232C74.2111 31.0162 73.9629 31.1403 73.7767 31.3265C73.4975 31.5747 73.3113 31.947 73.2803 32.3503C73.2493 32.5675 73.3424 32.7846 73.4665 32.9398C73.5906 33.0949 73.7767 33.25 73.9629 33.3431C74.2731 33.4982 74.6454 33.6533 74.9867 33.7154C75.39 33.8085 75.8243 33.9015 76.2587 33.9946C76.5689 34.0567 76.8792 34.1187 77.1894 34.1808C77.5617 34.2738 77.934 34.3979 78.2753 34.6151C78.7407 34.8633 79.0819 35.2666 79.2681 35.763C79.4853 36.4145 79.4853 37.1281 79.2681 37.7796C78.9889 38.6173 78.3373 39.2688 77.4997 39.517C76.693 39.7962 75.8554 39.8272 75.0177 39.6101C74.6454 39.517 74.3041 39.3309 73.9939 39.1137C73.8388 39.0206 73.7147 38.9275 73.5906 38.8034C73.4975 38.7724 73.4044 38.7724 73.3424 38.8345C73.2493 38.9586 73.1252 39.1137 73.0321 39.2378C72.9701 39.2998 72.908 39.3619 72.846 39.4239C72.7219 39.486 72.5978 39.4239 72.5357 39.3309V39.2998C72.5357 39.2068 72.5047 39.1447 72.5047 39.0516C72.4116 38.7414 72.4116 38.4001 72.4116 38.0278Z" fill="#59595B"/>
<path d="M82.6498 34.7392C82.6498 35.9181 82.6498 37.0971 82.6498 38.276C82.6498 38.4622 82.6808 38.6483 82.6808 38.8655C82.7118 38.9585 82.7739 39.0206 82.867 39.0206C83.0531 39.0516 83.2393 39.0516 83.4564 39.0516C83.6115 39.0516 83.7667 39.0827 83.8908 39.0827C83.9838 39.1137 84.0459 39.2378 84.0149 39.3308C84.0149 39.3619 83.9838 39.3929 83.9218 39.4239C83.8287 39.4549 83.7667 39.4549 83.6736 39.4549C82.3395 39.4549 81.0055 39.4549 79.6714 39.4549C79.5783 39.4549 79.5163 39.4239 79.4232 39.4239C79.3612 39.3929 79.3301 39.3308 79.3301 39.2688C79.3301 39.2067 79.3612 39.1447 79.4232 39.1137C79.4853 39.0826 79.5473 39.0516 79.6094 39.0516C79.7645 39.0516 79.9196 39.0516 80.0437 39.0516C80.2299 39.0516 80.385 39.0516 80.5711 39.0516C80.8193 39.0516 80.9124 38.9586 80.9124 38.6793C80.9124 38.5863 80.9124 38.4932 80.9124 38.4311C80.9124 38.307 80.9124 38.1829 80.9124 38.0588C80.9124 36.0422 80.9124 34.0256 80.9124 32.009C80.9124 31.7608 80.9124 31.5436 80.8814 31.2955C80.8814 31.1714 80.7883 31.1093 80.6642 31.0783C80.385 31.0473 80.1058 31.0473 79.8265 31.0473C79.7024 31.0473 79.5783 31.0162 79.4542 30.9852C79.4232 30.9852 79.3922 30.9232 79.3922 30.8921C79.3612 30.8301 79.3922 30.768 79.4542 30.737C79.5473 30.706 79.6094 30.706 79.7024 30.675C80.1678 30.6439 80.6332 30.6439 81.1296 30.6439C81.5019 30.6439 81.8431 30.6129 82.2154 30.5509C82.5257 30.4888 82.5877 30.5819 82.5877 30.8921C82.5877 31.0783 82.5877 31.2334 82.5877 31.4196L82.6498 34.7392Z" fill="#59595B"/>
<path d="M82.8669 28.41C82.8669 29.0616 82.3705 29.62 81.719 29.651C81.0675 29.651 80.5401 29.1236 80.509 28.4721C80.509 27.8206 81.0054 27.2931 81.657 27.2621C82.3085 27.2311 82.8359 27.7275 82.8669 28.379C82.8669 28.41 82.8669 28.41 82.8669 28.41Z" fill="#59595B"/>
<path d="M29.7526 26.5176C31.49 23.5392 31.5211 19.8473 29.7837 16.8379C28.3876 19.2268 28.0773 22.0811 28.946 24.6871C29.1322 25.3076 29.4114 25.9281 29.7526 26.5176C29.7526 26.4866 29.7216 26.4866 29.7526 26.5176Z" fill="url(#paint0_linear_12_112)"/>
<path d="M38.1293 21.7087C38.0983 21.6777 38.0673 21.6157 38.0673 21.5846C38.0983 21.6157 38.1293 21.6777 38.1293 21.7087C39.5254 19.3198 39.8357 16.4656 38.998 13.8595C38.7809 13.239 38.5327 12.6185 38.1914 12.0601C36.485 15.0074 36.423 18.6063 38.0673 21.5846C36.3609 18.7304 33.3205 16.962 30.0009 16.8689C33.3826 16.8068 36.485 14.9764 38.1914 12.0601H38.1604C34.7166 12.0601 31.5521 13.8905 29.7837 16.8689C29.8457 16.8689 29.9388 16.8689 30.0009 16.8689C29.9388 16.8689 29.8457 16.8689 29.7837 16.8689C31.428 19.7542 34.4684 21.6157 37.7881 21.7398C37.9122 21.7087 38.0052 21.7087 38.1293 21.7087Z" fill="url(#paint1_linear_12_112)"/>
<path d="M38.0983 31.3885C38.0673 31.3575 38.0673 31.2954 38.0363 31.2644C38.0363 31.2644 38.0363 31.2644 38.0363 31.2954C38.0673 31.2954 38.0983 31.3575 38.0983 31.3885Z" fill="url(#paint2_linear_12_112)"/>
<path d="M21.3139 41.0062C21.407 41.0062 21.4691 41.0062 21.5621 41.0062C24.8818 40.9131 27.8912 39.1757 29.6286 36.3525C29.6596 36.3215 29.6906 36.2594 29.7216 36.2284C29.7527 36.2594 29.7837 36.3215 29.7837 36.3525C29.7527 36.3215 29.7216 36.2594 29.7216 36.2284C29.8147 36.2284 29.8768 36.2284 29.9698 36.2284C33.3205 36.1353 36.423 34.3359 38.0983 31.4196C37.9742 31.4196 37.8501 31.4196 37.726 31.4196C37.8501 31.4196 37.9742 31.4196 38.0983 31.4196C38.0673 31.3885 38.0673 31.3265 38.0362 31.2955C38.0362 31.2955 38.0362 31.2955 38.0362 31.2644C36.3299 28.4102 33.2584 26.6107 29.9388 26.5177C33.3205 26.4556 36.454 24.6562 38.1603 21.7088C38.0362 21.7088 37.9432 21.7088 37.8191 21.7088C34.4684 21.8019 31.428 23.6324 29.7527 26.5177H29.9388H29.7527C31.397 29.403 34.4374 31.2334 37.757 31.3885C34.4994 31.5126 31.49 33.25 29.8147 36.0422C31.459 33.0639 31.459 29.465 29.7837 26.5177C28.3876 28.9066 28.0773 31.7608 28.946 34.3669C29.1322 34.9564 29.3804 35.5148 29.6906 36.0733C29.7216 36.1043 29.7527 36.1663 29.7527 36.1974C29.7216 36.1663 29.6906 36.1043 29.6906 36.0733C29.7216 36.1043 29.7216 36.1663 29.7527 36.1974C29.7216 36.1663 29.6906 36.1043 29.6906 36.0733C27.9532 33.1569 24.8197 31.3575 21.407 31.3265C21.438 31.3885 21.4691 31.4506 21.5001 31.5126L21.407 31.3265C21.376 31.3885 21.3139 31.4816 21.2829 31.5437C21.3139 31.4506 21.376 31.3885 21.407 31.2955H21.376C17.9633 31.2955 14.7988 33.0949 13.0614 36.0422C13.0614 36.0733 13.0303 36.1043 13.0303 36.1043C13.0303 36.0733 13.0614 36.0422 13.0614 36.0422C14.7057 33.188 14.7677 29.6822 13.2475 26.7348C15.0159 29.5581 18.0874 31.2644 21.438 31.2955C21.407 31.2334 21.376 31.2024 21.345 31.1403C19.6076 28.255 16.4741 26.4556 13.0924 26.4556C13.1544 26.5487 13.2165 26.6728 13.2785 26.7659C13.2165 26.6728 13.1544 26.5487 13.0924 26.4556L12.9683 26.6728C12.9993 26.6107 13.0614 26.5177 13.0924 26.4556H13.0614C9.71071 26.4556 6.60824 28.193 4.83983 31.0473C6.42209 28.162 6.42209 24.6872 4.87086 21.8019C6.60824 24.6872 9.74173 26.4246 13.0924 26.4556C13.0303 26.3625 12.9683 26.2384 12.9062 26.1454C12.9683 26.2384 13.0303 26.3625 13.0924 26.4556C13.1234 26.3936 13.1855 26.3315 13.2165 26.2695C13.1855 26.3315 13.1544 26.3936 13.0924 26.4866H13.0303C14.0542 26.4866 15.047 26.3315 16.0087 26.0213C18.2735 25.2767 20.1971 23.7565 21.376 21.7088H21.345C17.9943 21.7088 14.8608 23.4462 13.1234 26.3005C14.3954 23.9736 14.6747 21.1814 13.837 18.6684C13.6508 18.11 13.4337 17.5515 13.1234 17.0241C14.8608 19.9094 17.9943 21.6778 21.376 21.7088C19.6696 18.6374 16.4741 16.8069 13.0303 16.7759C13.0614 16.838 13.0924 16.9 13.1234 16.9621C13.0924 16.9 13.0614 16.838 13.0303 16.7759C13.0303 16.8069 12.9993 16.838 12.9993 16.838C12.9993 16.8069 13.0303 16.7759 13.0303 16.7759H12.9993C9.61763 16.7759 6.48414 18.5443 4.71573 21.4296C6.36004 18.4823 6.32902 14.9144 4.68471 11.9671C6.42209 14.9144 9.58661 16.7449 12.9993 16.7759C12.9683 16.7139 12.9373 16.6518 12.9062 16.6208C12.9373 16.6828 12.9683 16.7139 12.9993 16.7759C13.0303 16.7449 13.0303 16.7139 13.0303 16.7139C13.0303 16.7449 12.9993 16.7759 12.9993 16.7759C16.4431 16.7759 19.6696 14.9454 21.407 11.9671H21.2519H21.407C19.7007 9.01973 16.5982 7.15825 13.1855 7.0962C16.5672 7.06517 19.7007 5.26574 21.407 2.34942C20.0419 4.7073 19.7627 7.56157 20.6004 10.1366C20.8175 10.7571 21.0657 11.3776 21.407 11.9361C23.1444 8.95768 23.1444 5.26574 21.438 2.25635C21.438 2.28737 21.407 2.3184 21.407 2.3184L21.438 2.25635C21.376 2.25635 21.3139 2.25635 21.2519 2.25635C20.2901 2.25635 19.3284 2.4425 18.3976 2.72172V2.69069C16.2259 3.40426 14.3644 4.86242 13.1544 6.81698C13.1234 6.87903 13.0614 6.9721 13.0303 7.03415H13.1855H13.0303C14.7367 9.98149 17.8392 11.843 21.2209 11.905C17.8392 11.9361 14.7367 13.7355 12.9993 16.6208C14.6747 13.6424 14.6747 10.0125 12.9993 7.03415C13.0303 7.12722 13.0303 7.15825 12.9993 7.18927C12.9683 7.2203 12.9683 7.25132 12.9373 7.31337C11.355 10.1987 11.355 13.7045 12.9373 16.5898C11.1689 13.6734 8.03537 11.905 4.65368 11.905L4.68471 11.9671C4.68471 11.9361 4.65368 11.9361 4.65368 11.905C4.62266 11.9671 4.59163 12.0291 4.52958 12.0912C2.94732 14.9765 2.9163 18.4823 4.49856 21.3676C4.52958 21.4296 4.59163 21.4917 4.62266 21.5537C4.65368 21.4917 4.68471 21.4606 4.71573 21.3986L4.62266 21.5537C8.03537 21.5537 11.1999 19.7543 12.9683 16.8069C11.324 19.6612 11.2619 23.167 12.7822 26.0833C11.0137 23.3221 7.9423 21.5847 4.62266 21.5847C4.65368 21.6468 4.71573 21.7399 4.74676 21.8019C4.71573 21.7399 4.65368 21.6468 4.62266 21.5847L4.52958 21.7399C3.22655 24.0977 2.94732 26.8899 3.78499 29.434C3.97114 29.9614 4.18831 30.4888 4.43651 31.0162C4.49856 31.1093 4.52958 31.1714 4.59163 31.2644C4.62266 31.2024 4.68471 31.1093 4.71573 31.0473C4.68471 31.1093 4.62266 31.2024 4.59163 31.2644C7.9423 31.2644 11.0758 29.5271 12.8442 26.6728C11.2619 29.5581 11.2619 33.0328 12.8132 35.9181C11.0758 33.0328 7.9423 31.2644 4.59163 31.2644C4.65368 31.3575 4.68471 31.4196 4.74676 31.5126C6.48414 34.3669 9.58661 36.1043 12.9373 36.1353H12.9683C12.9373 36.0733 12.8752 36.0112 12.8442 35.9181C12.8752 35.9802 12.9062 36.0733 12.9683 36.1353C12.9683 36.1663 12.9373 36.1663 12.9373 36.1974L12.9683 36.1353C12.9993 36.1974 13.0614 36.2904 13.0924 36.3525C14.7988 39.1447 17.8082 40.9131 21.0968 41.0062C21.1588 41.0062 21.2209 41.0062 21.3139 41.0062L21.2519 41.1303C21.2829 41.0682 21.2829 41.0372 21.3139 41.0062C21.345 41.0993 21.407 41.1613 21.438 41.2234C21.407 41.1613 21.376 41.0682 21.3139 41.0062ZM29.8147 36.0422C29.7837 36.1043 29.7527 36.1353 29.7216 36.1974C29.7527 36.1353 29.7837 36.1043 29.8147 36.0422ZM29.6596 36.1974C29.5975 36.1974 29.5355 36.1974 29.4734 36.1974C29.5665 36.1974 29.6286 36.1974 29.7216 36.1974C29.6286 36.1974 29.5355 36.1974 29.4734 36.1974C29.5355 36.1974 29.5975 36.1974 29.6596 36.1974ZM22.1516 33.1569C21.9655 32.5985 21.7173 32.04 21.438 31.5126C23.1444 34.3359 26.1538 36.1043 29.4424 36.1974C26.1228 36.2904 23.0823 38.0588 21.376 40.8821C22.7101 38.5242 22.9893 35.732 22.1516 33.1569ZM21.407 40.8821L21.345 41.0062L21.407 40.8821ZM21.1588 40.758C20.3211 39.3929 19.1422 38.245 17.7771 37.4383C16.319 36.6007 14.6747 36.1353 12.9683 36.1353C16.319 36.1353 19.4214 34.3979 21.1898 31.5437C19.6386 34.429 19.6386 37.9037 21.1588 40.758Z" fill="url(#paint3_linear_12_112)"/>
<path d="M38.0983 31.3884C39.8046 28.4411 39.8667 24.8422 38.2224 21.8638L38.1603 21.7397C37.2916 23.1979 36.8573 24.8732 36.8573 26.5486C36.8573 28.1929 37.2606 29.8062 38.0362 31.2333C38.0673 31.2953 38.0983 31.3264 38.0983 31.3884Z" fill="url(#paint4_linear_12_112)"/>
<path d="M29.7527 26.5177C29.7527 26.4866 29.7217 26.4866 29.7527 26.5177C29.7217 26.4866 29.7217 26.4866 29.7527 26.5177Z" fill="url(#paint5_linear_12_112)"/>
<path d="M12.9994 7.18921C12.9683 7.22023 12.9683 7.25126 12.9373 7.28228C12.9373 7.28228 12.9373 7.28228 12.9373 7.31331C12.9683 7.25126 12.9683 7.22023 12.9994 7.18921Z" fill="url(#paint6_linear_12_112)"/>
<path d="M12.9993 7.18927C13.0304 7.15824 13.0304 7.12722 13.0614 7.09619H12.9373C9.58661 7.12722 6.51517 8.8646 4.77779 11.6878C4.74676 11.7499 4.71574 11.8119 4.65369 11.905C8.00435 11.905 11.1378 10.1676 12.9373 7.31336C12.9373 7.31336 12.9373 7.31336 12.9373 7.28234C12.9683 7.25131 12.9683 7.22029 12.9993 7.18927Z" fill="url(#paint7_linear_12_112)"/>
<path d="M20.5384 29.496C20.7245 30.0544 20.9727 30.6129 21.2519 31.1403C21.2829 31.2024 21.314 31.2334 21.345 31.2954C21.376 31.2024 21.4381 31.1403 21.5001 31.0472C21.4691 31.1403 21.407 31.2024 21.376 31.2954C24.8198 31.2954 28.0153 29.465 29.7837 26.4866C29.7217 26.4866 29.6596 26.4866 29.6286 26.4866C29.6906 26.4866 29.7217 26.4866 29.7837 26.4866V26.4556C28.0153 23.5082 24.8198 21.6778 21.376 21.6467C23.0514 24.5941 26.1848 26.4246 29.5665 26.5176C26.2779 26.5486 23.2375 28.286 21.4691 31.0783C22.7411 28.7514 22.9893 25.9902 22.1827 23.4462C21.9655 22.8257 21.7173 22.2052 21.376 21.6157C19.9799 24.0356 19.6697 26.8899 20.5384 29.496Z" fill="url(#paint8_linear_12_112)"/>
<path d="M29.7837 16.8379H29.7527C29.6906 16.8379 29.6286 16.8379 29.5665 16.8379C29.6286 16.8379 29.6906 16.8379 29.7527 16.8379H29.7837C28.0774 13.8906 24.9749 12.0291 21.5622 11.9671C24.9749 11.936 28.1084 10.1056 29.8147 7.15823H29.6596H29.8147C28.1394 4.21088 25.0369 2.3494 21.6552 2.28735H21.5001C23.2065 5.2347 26.3089 7.09618 29.7217 7.15823C26.3089 7.18925 23.1754 9.01971 21.4691 11.9671H21.6242H21.4691C23.1444 14.9144 26.2469 16.7449 29.5976 16.8379C26.2159 16.9 23.1134 18.7304 21.407 21.6468C24.8508 21.6468 28.0463 19.8163 29.7837 16.8379Z" fill="url(#paint9_linear_12_112)"/>
<path d="M21.376 21.6467C22.7721 19.2578 23.0824 16.4036 22.2137 13.7975C21.9965 13.177 21.7483 12.5565 21.407 11.998C20.0109 14.3869 19.7007 17.2412 20.5694 19.8473C20.7865 20.4368 21.0658 21.0573 21.376 21.6467Z" fill="url(#paint10_linear_12_112)"/>
<path d="M38.1914 12.0291C36.485 9.08173 33.3826 7.22025 29.9699 7.1582H29.8458C31.5521 10.1676 34.7477 11.9981 38.1914 12.0291Z" fill="url(#paint11_linear_12_112)"/>
<path d="M29.8457 7.1582C28.4496 9.5471 28.1394 12.4014 29.0081 15.0074C29.2253 15.6279 29.4734 16.2484 29.8147 16.8069C31.5211 13.8285 31.5211 10.1676 29.8457 7.1582Z" fill="url(#paint12_linear_12_112)"/>
</g>
<defs>
<linearGradient id="paint0_linear_12_112" x1="44.7349" y1="6.70842" x2="6.34386" y2="45.0995" gradientUnits="userSpaceOnUse">
<stop offset="2.59639e-07" stop-color="#84754D" stop-opacity="0.2"/>
<stop offset="0.5198" stop-color="#84754D"/>
<stop offset="1" stop-color="#84754D"/>
</linearGradient>
<linearGradient id="paint1_linear_12_112" x1="45.5281" y1="7.50157" x2="7.13706" y2="45.8926" gradientUnits="userSpaceOnUse">
<stop offset="2.59639e-07" stop-color="#84754D" stop-opacity="0.2"/>
<stop offset="0.5198" stop-color="#84754D"/>
<stop offset="1" stop-color="#84754D"/>
</linearGradient>
<linearGradient id="paint2_linear_12_112" x1="53.7057" y1="15.6788" x2="15.3145" y2="54.0707" gradientUnits="userSpaceOnUse">
<stop offset="2.59639e-07" stop-color="#84754D" stop-opacity="0.2"/>
<stop offset="0.5198" stop-color="#84754D"/>
<stop offset="1" stop-color="#84754D"/>
</linearGradient>
<linearGradient id="paint3_linear_12_112" x1="40.639" y1="2.61257" x2="2.24796" y2="41.0036" gradientUnits="userSpaceOnUse">
<stop offset="2.59639e-07" stop-color="#84754D" stop-opacity="0.2"/>
<stop offset="0.5198" stop-color="#84754D"/>
<stop offset="1" stop-color="#84754D"/>
</linearGradient>
<linearGradient id="paint4_linear_12_112" x1="51.3578" y1="13.3313" x2="12.9668" y2="51.7223" gradientUnits="userSpaceOnUse">
<stop offset="2.59639e-07" stop-color="#84754D" stop-opacity="0.2"/>
<stop offset="0.5198" stop-color="#84754D"/>
<stop offset="1" stop-color="#84754D"/>
</linearGradient>
<linearGradient id="paint5_linear_12_112" x1="47.1279" y1="9.10145" x2="8.73689" y2="47.4925" gradientUnits="userSpaceOnUse">
<stop offset="2.59639e-07" stop-color="#84754D" stop-opacity="0.2"/>
<stop offset="0.5198" stop-color="#84754D"/>
<stop offset="1" stop-color="#84754D"/>
</linearGradient>
<linearGradient id="paint6_linear_12_112" x1="29.1194" y1="-8.90718" x2="-9.2716" y2="29.484" gradientUnits="userSpaceOnUse">
<stop offset="2.59639e-07" stop-color="#84754D" stop-opacity="0.2"/>
<stop offset="0.5198" stop-color="#84754D"/>
<stop offset="1" stop-color="#84754D"/>
</linearGradient>
<linearGradient id="paint7_linear_12_112" x1="28.185" y1="-9.84141" x2="-10.206" y2="28.5496" gradientUnits="userSpaceOnUse">
<stop offset="2.59639e-07" stop-color="#84754D" stop-opacity="0.2"/>
<stop offset="0.5198" stop-color="#84754D"/>
<stop offset="1" stop-color="#84754D"/>
</linearGradient>
<linearGradient id="paint8_linear_12_112" x1="43.9445" y1="5.918" x2="5.55345" y2="44.3091" gradientUnits="userSpaceOnUse">
<stop offset="2.59639e-07" stop-color="#84754D" stop-opacity="0.2"/>
<stop offset="0.5198" stop-color="#84754D"/>
<stop offset="1" stop-color="#84754D"/>
</linearGradient>
<linearGradient id="paint9_linear_12_112" x1="36.7181" y1="-1.3084" x2="-1.67296" y2="37.0827" gradientUnits="userSpaceOnUse">
<stop offset="2.59639e-07" stop-color="#84754D" stop-opacity="0.2"/>
<stop offset="0.5198" stop-color="#84754D"/>
<stop offset="1" stop-color="#84754D"/>
</linearGradient>
<linearGradient id="paint10_linear_12_112" x1="38.1134" y1="0.0868855" x2="-0.277667" y2="38.4779" gradientUnits="userSpaceOnUse">
<stop offset="2.59639e-07" stop-color="#84754D" stop-opacity="0.2"/>
<stop offset="0.5198" stop-color="#84754D"/>
<stop offset="1" stop-color="#84754D"/>
</linearGradient>
<linearGradient id="paint11_linear_12_112" x1="40.8149" y1="2.78842" x2="2.42389" y2="41.1795" gradientUnits="userSpaceOnUse">
<stop offset="2.59639e-07" stop-color="#84754D" stop-opacity="0.2"/>
<stop offset="0.5198" stop-color="#84754D"/>
<stop offset="1" stop-color="#84754D"/>
</linearGradient>
<linearGradient id="paint12_linear_12_112" x1="39.9153" y1="1.88882" x2="1.52427" y2="40.2799" gradientUnits="userSpaceOnUse">
<stop offset="2.59639e-07" stop-color="#84754D" stop-opacity="0.2"/>
<stop offset="0.5198" stop-color="#84754D"/>
<stop offset="1" stop-color="#84754D"/>
</linearGradient>
<clipPath id="clip0_12_112">
<rect width="142" height="44.2722" fill="white" transform="translate(0 0.36377)"/>
</clipPath>
</defs>
</svg>
